# xmcd
#
# Track frame offsets:
#	150
#	15460
#	30037
#	39087
#	60470
#	77267
#	89210
#	103785
#	117750
#	132437
#	138742
#	153212
#	163725
#	178727
#	190230
#	204607
#	219870
#	231787
#	241512
#	257335
#	271367
#	282300
#	293010
#	309150
#
# Disc length: 4256 seconds
# Revision: 0
# Processed by: cddbd v1.5.2PL0 Copyright (c) Steve Scherf et al.
# Submitted via: dBpowerAMP V12.0
#
DISCID=38109e18
DTITLE=Various Artist - TM Century GoldDisc CX2
DYEAR=1900
DGENRE=Country Christmas
TTITLE0=Highway 101 - It Came Upon A Midnight Clear
TTITLE1=Marty Robbins - O Little Town Of Bethlehem
TTITLE2=The Statler Brothers - Christmas Country Style
TTITLE3=The Oak Ridge Boys - The Voices Of Rejoicing Love
TTITLE4=Dolly Parton - Winter Wonderland - Sleigh Ride
TTITLE5=Willie Nelson - Blue Christmas
TTITLE6=Reba McEntire - A Christmas Letter
TTITLE7=George Strait - What A Merry Christmas This Could Be
TTITLE8=Ronnie Milsap - I'll Be Home For Christmas
TTITLE9=Chet Atkins - God Rest Ye Merry Gentlemen
TTITLE10=Barbara Mandrell - It Must Have Been The Mistletoe
TTITLE11=George Jones - Jingle Bells
TTITLE12=Alabama - Happy Holidays
TTITLE13=Gene Autry - Here Comes Santa Claus
TTITLE14=Merle Haggard - White Christmas
TTITLE15=Kenny Rogers and Dolly Parton - The Christmas Song
TTITLE16=The Statler Brothers - Whose Birthday Is Christmas
TTITLE17=Anne Murray - Joy To The World
TTITLE18=Ronnie Milsap - Only One Night Of The Year
TTITLE19=The Judds - Who Is This Babe
TTITLE20=Willie Nelson - Pretty Paper
TTITLE21=Janie Fricke - What Child Is This
TTITLE22=The Nitty Gritty Dirt Band - Colorado Christmas
TTITLE23=Marty Robbins - The Joy Of Christmas
EXTD=
EXTT0=
EXTT1=
EXTT2=
EXTT3=
EXTT4=
EXTT5=
EXTT6=
EXTT7=
EXTT8=
EXTT9=
EXTT10=
EXTT11=
EXTT12=
EXTT13=
EXTT14=
EXTT15=
EXTT16=
EXTT17=
EXTT18=
EXTT19=
EXTT20=
EXTT21=
EXTT22=
EXTT23=
PLAYORDER=
